<?xml version="1.0" encoding="UTF-8" standalone="no"?>
<!-- Created with Inkscape (http://www.inkscape.org/) -->

<svg
   width="500"
   height="500"
   viewBox="0 0 132.29167 132.29167"
   version="1.1"
   id="svg1"
   xmlns="http://www.w3.org/2000/svg"
   xmlns:svg="http://www.w3.org/2000/svg">
  <defs
     id="defs1" />
  <g
     id="layer1">
    <rect
       width="132.29167"
       height="132.29167"
       rx="3.8757324%"
       fill="#3178c6"
       id="rect1"
       style="fill:#6a0dad;fill-opacity:1;stroke-width:0.258381"
       x="-8.6736174e-19"
       y="-5.5511151e-17" />
    <path
       id="path1-9-1-1"
       style="fill:#ffffff;stroke-width:1.68018"
       d="M 81.586413,61.004928 V 120.96534 H 94.275217 V 95.781782 H 116.10916 V 85.331871 H 94.275217 V 72.055181 H 123.4424 V 61.004928 Z" />
    <path
       id="path1"
       d="m 52.632261,61.350123 c -3.100586,0 -5.942794,0.336104 -8.785001,0.982051 -2.842197,0.645957 -5.167636,1.679492 -7.234697,3.100586 -2.092891,1.395263 -3.617354,3.100585 -4.909258,5.426025 -1.214394,2.17041 -1.808682,4.650879 -1.808682,7.751465 0,3.875732 1.111046,7.234706 3.358975,9.818524 2.22208,2.842208 5.684405,4.909259 10.076904,6.976318 1.782832,0.723468 3.358965,1.446641 4.909258,2.144265 1.550294,0.697636 2.842209,1.421201 3.875734,2.170512 1.111045,0.749311 1.98954,1.576131 2.583818,2.454631 0.645957,0.8785 0.982061,1.91202 0.982061,3.10059 0,0.82682 -0.201739,1.60196 -0.594483,2.32544 -0.392745,0.72346 -1.007588,1.34389 -1.834414,1.86065 -0.826825,0.51676 -1.834512,0.92987 -3.100586,1.23993 -1.214395,0.28423 -2.583819,0.43955 -4.3925,0.43955 -2.842198,0 -5.684405,-0.49122 -8.268223,-1.47308 -2.842208,-0.98185 -5.425928,-2.45448 -7.260441,-3.98928 v 12.40235 c 2.092891,1.0852 4.650879,1.88628 7.493087,2.42888 2.842197,0.54261 5.942783,0.80089 9.043369,0.80089 3.100588,0 5.942794,-0.28432 8.785001,-0.87859 2.842199,-0.59427 5.167638,-1.57614 7.234699,-2.84221 2.092889,-1.36943 3.875732,-3.10058 4.909257,-5.42602 1.033536,-2.32545 1.834415,-4.90927 1.834415,-8.26824 0,-2.35126 -0.361631,-4.392488 -1.059268,-6.20117 -0.697626,-1.808668 -1.705322,-3.358961 -3.100585,-4.650875 -1.317745,-1.369424 -2.842198,-2.583819 -4.65088,-3.617344 -1.808672,-1.033534 -3.875732,-2.11874 -6.201173,-3.100585 -1.705322,-0.697636 -3.100585,-1.369531 -4.650878,-2.041318 -1.343587,-0.671797 -2.506311,-1.343291 -3.358966,-2.015078 -0.956017,-0.697637 -1.679483,-1.421211 -2.196251,-2.170517 -0.516767,-0.775147 -0.775146,-1.627804 -0.775146,-2.583819 0,-0.878496 0.229755,-1.679688 0.697431,-2.403154 0.467676,-0.723477 1.111045,-1.317647 1.937862,-1.834414 0.826826,-0.516768 1.860351,-0.904239 3.100586,-1.188457 1.214404,-0.28422 2.557989,-0.41331 4.134121,-0.41331 1.085206,0 2.222081,0.07998 3.358966,0.242734 1.188556,0.162782 2.402959,0.413515 3.617354,0.749414 1.214394,0.335888 2.402949,0.749404 3.617344,1.26617 1.136885,0.516759 2.196249,1.110637 3.100585,1.782432 V 63.572104 c -1.9637,-0.749306 -4.13411,-1.317742 -6.45955,-1.679482 -2.32544,-0.361728 -4.909259,-0.542499 -8.009845,-0.542499 z"
       style="fill:#ffffff;stroke-width:0.258381" />
  </g>
</svg>
